<?xml version="1.0" encoding="utf-8"?>
<!-- Generator: Adobe Illustrator 24.0.2, SVG Export Plug-In . SVG Version: 6.00 Build 0)  -->
<svg version="1.1" id="Capa_1" xmlns="http://www.w3.org/2000/svg" xmlns:xlink="http://www.w3.org/1999/xlink" x="0px" y="0px"
	 viewBox="0 0 493.7 493.7" style="enable-background:new 0 0 493.7 493.7;" xml:space="preserve">
<style type="text/css">
	.st0{fill:#0284c7;}
	.st1{fill:#F9F9F9;}
</style>
<g>
	<path class="st0" d="M246.6,10.8C115.7,10.9,9.7,117.1,9.8,248S116.1,484.9,247,484.8c130.8-0.1,236.8-106.2,236.8-237
		C483.6,116.9,377.5,10.9,246.6,10.8z"/>
	<path class="st1" d="M386.5,397.7c-0.1,0-0.3,0.1-0.4,0.1h-0.4c-10.7,4.6-23.1-0.3-27.7-11l-44-101.9h-67.7V241h52.3l-52.3-126.1
		L134.8,386.4c-3.2,8-11.1,13.2-19.8,12.7c-2.8,0.6-5.6,0.6-8.3,0c-10.5-4.4-15.5-16.5-11.1-27c0-0.1,0.1-0.1,0.1-0.2l131.8-319
		c5.8-10.9,19.4-15,30.3-9.2c3.9,2.1,7.1,5.3,9.2,9.2l131.8,318.9C402.5,382.4,397,393.9,386.5,397.7z"/>
</g>
</svg>
