<svg
  xmlns="http://www.w3.org/2000/svg"
  id="Layer_1"
  width="144"
  height="144"
  version="1.1"
  viewBox="0 0 144 144"
>
  <defs>
    <style>
      .st0 {
        fill: #000;
      }
    </style>
  </defs>
  <path
    id="uci_simpleseal_white_nofill_small"
    class="st0"
    d="M19.8,72c0-28.8,23.4-52.2,52.2-52.2s52.2,23.4,52.2,52.2-23.4,52.2-52.2,52.2h0c-28.8,0-52.2-23.4-52.2-52.2h0ZM18.4,72c0,29.6,24,53.6,53.6,53.6s53.6-24,53.6-53.6-24-53.6-53.6-53.6c-29.6,0-53.6,24-53.6,53.6ZM142.6,72c0,39-31.6,70.6-70.6,70.6S1.4,111,1.4,72C1.4,33,33,1.4,72,1.4c39,0,70.6,31.6,70.6,70.6ZM72,0C32.2,0,0,32.2,0,72s32.2,72,72,72,72-32.2,72-72h0C144,32.2,111.8,0,72,0h0ZM29.9,122l-1.2,1.1-6.8-7,1.2-1.1,2.5,2.6,5.5-5.3,1.7,1.8-5.5,5.3,2.5,2.6h0ZM18.8,112.2l3.1-1.9-3-4.8-3.1,2-1.3-2.1,7.9-4.9,1.3,2.1-3.3,2.1,3,4.8,3.3-2.1,1.3,2.1-7.9,4.9-1.3-2.1h0ZM9.4,93.2l1.6-.6,2,5.5,2-.7-1.7-4.8,1.6-.5,1.7,4.8,2.2-.8-2-5.8,1.6-.5,2.9,8.1-8.8,3.1-2.8-7.8h0ZM11.2,74.2c2.1-.2,3.9,1.4,4.1,4.9.3,3.3-1.2,5.2-3.4,5.4l-5.8.4-.2-2.4,5.4-.4c1.1,0,2.2-.7,2.1-2.9s-1.4-2.6-2.5-2.5l-5.4.4-.2-2.4,5.8-.4h0ZM5.6,66.3l7.4-4.7h0c0,0-6.5-1-6.5-1l.3-2.2,9.2,1.3-.4,2.9-7.6,4.8h0c0,0,6.7,1.1,6.7,1.1l-.3,2.2-9.2-1.3.4-3h0ZM8.9,50.7l8.8,3.1-.8,2.4-8.8-3.1s.8-2.4.8-2.4ZM10.6,45.8l7.5.3h0c0,0-4.5-6.2-4.5-6.2l1.2-2.3,6.1,8.5-1.3,2.4-10.4-.3,1.3-2.5h0ZM21.5,28.6l1.3,1-3.6,4.5,1.6,1.3,3.2-4,1.3,1-3.2,4,1.8,1.4,3.8-4.8,1.3,1-5.4,6.7-7.3-5.8,5.2-6.5h0ZM29.6,20.9c2-1.7,3.8-1.4,4.7-.3.9,1.1.9,2.7-.1,3.7h0c0,0,4.4,1.1,4.4,1.1l-2.2,1.9-4-1.1-1.3,1.1,2.2,2.6-1.9,1.6-6-7.1,4.2-3.5h0ZM32.4,22.2c-.6-.7-1.4-.6-2.3.2l-1.8,1.6,1.8,2.1,1.8-1.5c.9-.8,1.2-1.6.6-2.3ZM43.1,14.5c-1,0-1.9.2-2.7.6-1.2.6-1.5,1.2-1.2,1.7.4.7,1.4.3,2.8-.2,1.6-.6,3.4-.8,4.3.9.9,1.7-.2,3.6-2.6,4.9-1.3.7-2.7,1.1-4.1,1.1v-2c1.1,0,2.2-.1,3.3-.7,1.1-.6,1.8-1.3,1.4-2-.5-.9-1.9-.2-3.2.2-1.6.5-3.1.5-3.9-1.1-.8-1.5.3-3.4,2.3-4.5,1.1-.6,2.3-.9,3.6-.9v1.9h0ZM50.5,9.1l3,8.8-2.4.8-3-8.8,2.4-.8h0ZM53.8,9.4l-.3-1.6,9.6-1.8.3,1.6-3.6.7,1.4,7.5-2.4.5-1.4-7.5-3.6.7h0ZM64.3,5.8h3c0-.1,2.9,3.6,2.9,3.6h0l2.5-4h2.8c0-.1-4.1,5.8-4.1,5.8l.2,3.5h-2.4c0,.1-.2-3.4-.2-3.4l-4.7-5.6h0ZM87.9,6.8c3.5,1,5.5,3.5,4.7,6.4-.8,2.8-3.9,4-7.4,3-3.5-1-5.5-3.6-4.8-6.4.8-2.9,4-4,7.4-3h0ZM90.1,12.5c.5-1.8-.6-3.2-2.7-3.8s-3.8.2-4.3,1.9c-.5,1.8.7,3.3,2.7,3.8,2,.6,3.8-.1,4.3-1.9h0ZM105.4,14l-.8,1.5-5-2.6-1.2,2.3,4.4,2.3-.8,1.5-4.4-2.3-1.6,3-2.2-1.2,4.3-8.2s7.2,3.8,7.2,3.8ZM117.1,26c-.3-1-.8-1.9-1.5-2.6-1.2-1.4-3.2-1.6-4.6-.4,0,0,0,0-.1,0-1.3,1.3-.8,3.3.6,4.7.8.8,1.9,1.3,3,1.4l-.7,2c-1.4-.3-2.6-1-3.6-2-2.6-2.5-3.2-5.8-1.2-7.9,2.1-2.1,5.4-1.7,7.9.8.9.9,1.6,2,2,3.2l-1.9.7h0ZM126,33.2l-4.7,9.3-1.6-2.2,1-1.8-3.2-4.3-2,.3-1.5-2,10.5-1.5,1.6,2.1h0ZM123.5,33.3h0c0,0-4.2.6-4.2.6l2.3,3.1,2-3.7h0ZM122.4,43.6l8.4-4,1.1,2.3-6.9,3.3,2.2,4.4-1.5.7-3.3-6.7ZM135.7,51.5l-8.9,2.7-.7-2.4,8.9-2.7.7,2.4ZM138.5,64.1l-1.6.3-.9-5.6-2.6.4.8,4.9-1.6.3-.8-4.9-3.4.5-.4-2.4,9.2-1.4,1.2,8h0ZM139.2,73.2c-.1,3.6-2.2,6.2-5.1,6.1-2.9-.1-4.8-2.8-4.6-6.5.1-3.6,2.2-6.2,5.1-6.1,3,.1,4.8,2.9,4.6,6.5h0ZM134.2,76.6c1.8,0,3-1.3,3.1-3.5,0-2.2-1-3.6-2.8-3.7-1.8,0-3,1.4-3.1,3.5,0,2.1,1,3.7,2.8,3.7ZM136.9,88.7c-.7,2.5-2.3,3.3-3.7,2.9-1.4-.4-2.2-1.7-2-3.1h0s-4.2,1.6-4.2,1.6l.8-2.8,3.9-1.3.5-1.7-3.3-.9.7-2.4,9,2.5-1.5,5.2h0ZM133.7,89.2c.9.2,1.5-.3,1.8-1.4l.6-2.3-2.6-.7-.6,2.3c-.3,1.2,0,2,.8,2.2ZM133.1,98.9l-8.4,2.4h0c0,0,6,2.9,6,2.9l-.9,2-8.4-4,1.2-2.6,8.6-2.4h0c0,0-6.2-3-6.2-3l.9-2,8.4,4-1.3,2.7h0ZM125.1,112.8l-7.3-5.8,1.6-2,7.3,5.8-1.6,2h0ZM118.5,120.2l-9.9-3.5,2-1.9,1.9.7,3.9-3.7-.6-2,1.8-1.7,2.8,10.2-1.9,1.8h0ZM118.1,117.7h0c0,0-1.2-4.1-1.2-4.1l-2.8,2.6,4,1.5ZM47.7,124l-4.3,8.2-2.2-1.2,4.3-8.2,2.2,1.2ZM55.3,126.9c2.5.7,3.3,2.4,2.9,3.8-.4,1.3-1.8,2.2-3.1,1.9h0c0,0,1.5,4.3,1.5,4.3l-2.8-.8-1.3-3.9-1.6-.5-1,3.3-2.4-.7,2.6-8.9,5.2,1.5h0ZM55.7,130.1c.3-.9-.3-1.5-1.4-1.8l-2.3-.7-.8,2.6,2.3.7c1.2.3,2,0,2.2-.8h0ZM62.3,128.7l2.5,7.1h0l4-6.4,2.5.3-5.6,8.7-2.7-.3-3.6-9.7,2.8.3h0ZM75,129.6v9.3h-2.5v-9.3h2.5ZM81,128.7l6.9,5.4h0l-1.3-6.5,2.1-.4,1.8,9.1-2.8.6-7-5.5h0l1.3,6.7-2.1.4-1.8-9.1s2.9-.6,2.9-.6ZM99.2,122.8l.7,1.5-5.2,2.5.9,1.9,4.6-2.2.7,1.5-4.6,2.2,1,2.1,5.5-2.7.7,1.5-7.7,3.7-4-8.3,7.4-3.6h0ZM107.3,124.8l1.7.9-.3-1.9,1.4-1.3-1.9-.3-.8-1.7-.8,1.7-1.9.3,1.3,1.3-.3,1.9,1.7-.9h0ZM36,124.5l1.7.9-.3-1.9,1.4-1.3-1.9-.3-.8-1.7-.8,1.7-1.9.3,1.4,1.3-.3,1.9,1.7-.9h0ZM65.8,39.3l6.2-3.3,6.3,3.3-1.2-7,5.1-4.9-7-1-3.1-6.3-3.1,6.3-7,1,5.1,4.9-1.2,7h0ZM69.4,31.6l-2.6-2.5,3.5-.5,1.6-3.2,1.6,3.2,3.5.5-2.6,2.5.6,3.5-3.2-1.7-3.2,1.7s.6-3.5.6-3.5ZM59.7,29.6l-1.7-1.7-12,1.8.2,1.3,13.6-1.5h0ZM63.3,34.3l.2-1.1-.6-.6-27.5,8.8.4,1.3,27.6-8.5h0ZM108.3,42.8l.4-1.3-27.5-8.8-.6.6.2,1.1,27.6,8.5h0ZM97.8,31.1l.2-1.3-12-1.8-1.7,1.7,13.6,1.5h0ZM85.2,43c-8.3,0-12.1,1.2-13.2,3-1-1.8-4.9-3-13.2-3l3.4-2.3.5-3-6.7,5.4c-1.9,0-13.4.9-15.3,1.2v2.3c-1,.2-4.9,1-6,1.3v12.4l-9.5,7.6.7,1.2,8.8-7.1v7.7c-3.7,0-7,2.3-8.2,5.8-1,2.9-1.7,5.8-2.1,8.9,0,3.6,4.5,7.2,10.4,7.4v11.5h16c4.7,6.8,12.1,13.7,24.6,13.8,15,0,23.8-7.2,27.9-13.8h6.2v-7.5c6.6-1.4,11.2-7,11.2-10.5,0-2-.3-3.9-.8-5.8-.2-.7-1-3.6-1.2-4.2-.7-2.2-2.9-3-5.1-3-1.5,0-2.9.5-4.1,1.3v-11.6l8.8,7.1.8-1.2-9.5-7.6v-12.4c-1-.3-4-.9-6-1.3v-2.3c-2.5-.2-12.3-1.1-15.4-1.2l-6.6-5.3.5,3,3.4,2.3h0ZM83.6,94.3c-6.6,0-9,1-10.4,3.3M37,69.5v-20l3.7-.8v21.4c-1.2-.4-2.5-.6-3.7-.6ZM103.3,80.9v-32.3l3.7.8v31.5c-.5,0-1.2,0-1.8,0s-1.5,0-1.9,0ZM34.6,90.5c-3.5,0-7-1.6-7-3.5s3.5-3.5,7-2.3v5.9ZM36.9,100.9v-15c1.3,1.1,2.6,2.2,3.7,3.5v7.5h5.6c.4.7,2.6,3.8,2.7,4h-12ZM77,103.2h24.5c-3.8,6.4-13.5,12.5-25.8,12.5s-20.7-8.1-25.1-14.6c-1.2-1.8-3-4.2-4.1-5.9-4.2-6.3-9.1-12.3-14.3-12.3s-6.2,1.9-6,4.1c-.5-.8-.8-1.8-.9-2.7,0-.9.2-1.7.4-2.5.5-2.1.9-3.7,1.3-4.9,1.1-3.8,2.9-6.1,9.8-6.1s14.3,9,17.4,13.1c0,0,6.2,8.6,7.7,10.7,4,5.5,9.8,8.7,14.9,8.7h0ZM107.1,96.9v3.9h-31.7c1.5-3.5,4-3.9,8.1-3.9h23.6ZM116.9,74.1s1.4,4.5,1.6,5.2c.5,1.7.9,3.5,1,5.3,0,2.9-3.9,10.4-14.8,10.4s-17.7-5.5-24.1-5.5c-1.5,0-2.9.2-4.3.8.8-1.9,2-4.8,3-5.8-1-.8-2.7-2.3-3.5-3.1,1.9-2.7,5-4.2,8.2-4.1,5.7,0,13.3,5.1,20.7,5.1s12.1-5.7,12.2-8.3h0ZM113.6,73.3c1.7,0,2,.7,2,1.6,0,2.3-3.4,4.8-6.2,5.7v-5.5c1.2-1,2.7-1.5,4.2-1.7h0ZM54.4,51.4h2.1v-1.7h-2.1v1.7ZM54.4,55.9h3.1v-1.7h-3.1v1.7ZM57,60.3h4.3v-1.7h-4.3v1.7ZM62.9,58.6v1.7c1.7,0,3.4.5,4.9,1.3v-1.3c-1.5-1-3.1-1.6-4.9-1.7h0ZM58.1,51.4h3.2v-1.7h-3.2v1.7ZM46.6,69.1h5v-1.7h-5v1.7ZM67.8,83.6v-1.3c-1.4-1.1-3.1-1.7-4.8-1.7h-3.9v1.7h3.3c1.9,0,3.7.4,5.3,1.3ZM62.3,67.4h-2.2v1.7h2.1c1.9,0,3.8.5,5.6,1.3v-1.3c-1.6-1.2-3.5-1.8-5.5-1.7h0ZM62.9,49.8v1.7c1.7.1,3.3.5,4.9,1.3v-1.3c-1.3-1.2-3.1-1.9-4.9-1.7h0ZM59.6,54.2v1.7h2.6c1.9,0,3.8.5,5.6,1.3v-1.3c-1.6-1.2-3.5-1.8-5.5-1.7h-2.7ZM62.9,71.8v1.7c1.7.1,3.3.5,4.9,1.3v-1.3c-1.5-1-3.1-1.6-4.9-1.7h0ZM50.8,53.8l.5,2h1.8l-2.4-8.4h-2.2l-2.2,8.4h1.5l.5-2h2.6ZM49.5,48l1.3,4.5h-2.5s1.3-4.5,1.3-4.5ZM46.6,60.3h8.4v-1.7h-8.4v1.7ZM62.9,85v1.7c1.7,0,3.4.5,4.9,1.3v-1.3c-1.4-1.2-3.1-1.8-4.9-1.7h0ZM64.1,78c1.3.2,2.5.6,3.6,1.1v-1.3c-1.1-.8-2.3-1.4-3.6-1.6v1.7ZM62.4,76.2h-5.5v1.7h5.5v-1.7ZM53.5,69.1h5v-1.7h-5v1.7ZM46.6,64.7h6.5v-1.7h-6.5v1.7ZM62.9,63v1.7c1.7.1,3.3.5,4.9,1.3v-1.3c-1.4-1-3.1-1.6-4.9-1.7h0ZM61.3,63h-2.7v1.7h2.7v-1.7ZM54.9,63v1.7h2.1v-1.7h-2.1ZM61,71.8h-3.4v1.7h3.4v-1.7ZM97.2,49.8h-9.8v1.7h9.8v-1.7ZM89.4,54.2h-3.1v1.7h3.1v-1.7ZM97.2,54.2h-6.3v1.7h6.3v-1.7ZM86.9,58.6h-4.3v1.7h4.3v-1.7ZM76.1,60.3v1.3c1.5-.8,3.2-1.2,4.9-1.3v-1.7c-1.7.2-3.4.7-4.9,1.7h0ZM85.8,49.8h-3.2v1.7h3.2v-1.7ZM97.2,71.8h-9.1v1.7h9.1v-1.7ZM97.2,67.4h-5v1.7h5v-1.7ZM76.1,69.1v1.3c1.7-.8,3.6-1.3,5.6-1.3h2.1v-1.7h-2.2c-2,0-3.9.5-5.5,1.7h0ZM76.1,51.5v1.3c1.5-.7,3.2-1.2,4.9-1.3v-1.7c-1.8-.1-3.6.5-4.9,1.7h0ZM81.6,54.2h0c-2-.1-3.9.5-5.5,1.7v1.3c1.7-.8,3.6-1.3,5.6-1.3h2.6v-1.7h-2.7,0ZM76.1,73.5v1.3c1.5-.7,3.2-1.2,4.9-1.3v-1.7c-1.7.2-3.4.8-4.9,1.7h0ZM97.2,58.6h-8.4v1.7h8.4v-1.7ZM90.4,67.4h-5v1.7h5v-1.7ZM97.2,63h-6.5v1.7h6.5v-1.7ZM76.1,64.7v1.3c1.5-.7,3.2-1.2,4.9-1.3v-1.7c-1.7.1-3.4.7-4.9,1.7h0ZM82.5,64.7h2.7v-1.7h-2.7v1.7ZM86.9,63v1.7h2.1v-1.7h-2.1ZM82.8,73.5h3.4v-1.7h-3.4v1.7ZM32.7,73l1.2.2-1.8,5.6,3.5.6-.2,1.1-4.8-.8,2.2-6.7h0ZM43.7,77.9l-3.5-1.8-.8,1.6,2.4,1.2-.5,1-2.4-1.2-.9,1.6,3.5,1.8-.5,1-4.6-2.4,3.2-6.1,4.6,2.4-.5,1h0ZM43,85.3l-.8-.9,4.4-3.8-1.4-1.7.8-.7,3.7,4.2-.8.7-1.4-1.7-4.4,3.8h0ZM48,92.3l-.7-1,4.7-3.4-1.3-1.8.9-.7,3.3,4.5-.9.7-1.3-1.8-4.7,3.4h0ZM53.1,94.3l-2.3,1.7-.7-1,5.6-4.1.7,1-2.3,1.7,2,2.7,2.3-1.7.7,1-5.6,4.1-.7-1,2.3-1.7-2-2.7ZM63.1,101.9l-2.8-2.8-1.3,1.3,1.8,1.8-.8.8-1.8-1.8-1.3,1.3,2.8,2.8-.8.8-3.7-3.7,4.9-4.9,3.6,3.6-.8.8h0ZM65.1,110.1l-.3-2.9-1.3-.8-1.2,2.1-1.1-.6,3.4-6,2.7,1.5c1.1.4,1.7,1.7,1.3,2.9,0,.1,0,.2-.2.3-.5.9-1.5,1.3-2.5,1l.3,3.2-1.2-.7h0ZM66.7,104.3l-1.5-.9-1.1,2,1.6.9c.5.4,1.3.3,1.7-.2,0,0,0,0,0-.1.4-.7.1-1.3-.7-1.7h0ZM75.2,106.9l-3.9-.6-.3,1.8,2.7.4-.2,1.1-2.7-.4-.3,1.8,3.9.6-.2,1.1-5.1-.8,1-6.8,5.1.8-.2,1.1h0ZM84.5,106.5c.2.7,0,1.3-.6,1.7.8,0,1.5.5,1.7,1.4.3,1.2-.6,2.1-2.1,2.4l-3.1.7-1.5-6.8,3-.7c1.4-.3,2.4.2,2.6,1.2h0ZM83.4,107c-.1-.6-.6-.8-1.4-.6l-1.7.4.4,1.8,1.6-.4c.8-.2,1.2-.6,1.1-1.2ZM84.4,109.7c-.1-.6-.7-.8-1.6-.6l-1.9.4.4,1.9,2-.4c.8-.2,1.2-.6,1.1-1.2h0ZM90.4,101.9l-4.6,2.4,3.2,6.2,4.6-2.4-.5-1-3.5,1.8-.8-1.7,2.4-1.2-.5-1-2.4,1.2-.8-1.6,3.5-1.8-.5-1h0ZM82.1,80l1.2.2-1,5.7,3.6.6-.2,1.1-4.8-.8,1.2-6.8h0ZM91.2,82.4l-2.4,6.5-1.1-.4,2.4-6.5,1.1.4ZM95.5,91.5c-1.8-.5-3-2.3-2.5-4.2,0,0,0-.2,0-.3.5-1.9,2.5-3,4.3-2.5,0,0,0,0,0,0,.9.2,1.8.8,2.3,1.7l-1,.7c-.4-.6-1-1.1-1.6-1.3-1.3-.3-2.5.4-2.9,1.7,0,0,0,0,0,0-.5,1.2.1,2.5,1.3,3,0,0,.2,0,.2,0,.6.2,1.2.2,1.8,0l.4-1.2-1.1-.3.3-1,2.2.7-.8,2.8c-1,.4-2.1.5-3.1.2h0ZM104,89.4v2.9c.1,0-1.1,0-1.1,0l-.3-6.9h1.2c0,0,.1,2.8.1,2.8l3.3-.2v-2.9c-.1,0,1.1,0,1.1,0l.3,6.9h-1.2c0,0-.1-2.9-.1-2.9l-3.3.2ZM115.4,89.3l-1.1.6-1.8-5.3-1.9,1.1-.3-1.1,4.9-2.8.4,1.1-1.9,1.1,1.8,5.3h0ZM42.9,92.2c.4.5,1.4,1.8,1.8,2.2h-1.8v-2.2ZM88.9,76.2v.5c-1.3-.4-2.7-.7-4-.7-1.8,0-3.6.2-5.2.8v-.5c-1.3.2-2.6.8-3.6,1.6v1.2c-.7.7-1.3,1.5-1.7,2.4,1.1,1,2.6,2.3,3.4,3.1-2,2.1-2.4,4.9-3.2,7.7,2-1.3,4.3-1.9,6.7-1.7,2.3,0,8,2.4,10.9,3.6h-8.5c-6.6,0-9,1-10.4,3.3v-49.7c1.4-1.9,4.7-3.1,11.7-3.1s16.2,1.2,16.2,1.2v34.7c-3-.7-5.9-1.7-8.7-2.8h5v-1.7h-8.5ZM70.8,48v49.7c-1.4-2.2-3.8-2.9-7.2-3.2-1.4-1.9-4.1-5.7-5.6-7.7h3v-1.7h-4.2c-.6-.8-1.3-1.8-2-2.7h2.6v-1.7h-3v1.2c-1-1.3-2-2.6-3.1-3.9h3.7v-1.7h-5.2c-.9-1-1.8-1.9-2.7-2.7h8.6v-1.7h-9.1v1.3c-1.1-.9-2.3-1.7-3.6-2.3v-24.8s12.2-1.2,16.2-1.2c7,0,10.2,1.2,11.7,3.1Z"
  />
</svg>
